<?xml version="1.0" encoding="UTF-8" standalone="no"?>
<!DOCTYPE svg PUBLIC "-//W3C//DTD SVG 1.1//EN"
 "http://www.w3.org/Graphics/SVG/1.1/DTD/svg11.dtd">
<!-- Generated by graphviz version 2.47.0 (20210316.0004)
 -->
<!-- Title: dependencies Pages: 1 -->
<svg width="744pt" height="284pt"
 viewBox="0.00 0.00 744.00 284.00" xmlns="http://www.w3.org/2000/svg" xmlns:xlink="http://www.w3.org/1999/xlink">
<g id="graph0" class="graph" transform="scale(1 1) rotate(0) translate(4 280)">
<title>dependencies</title>
<polygon fill="white" stroke="transparent" points="-4,4 -4,-280 740,-280 740,4 -4,4"/>
<text text-anchor="start" x="347.01" y="-42.4" font-family="Times-12" font-weight="bold" font-size="14.00">Legend</text>
<polygon fill="#ffffb3" stroke="transparent" points="134,-10 134,-30 154,-30 154,-10 134,-10"/>
<text text-anchor="start" x="157.63" y="-15.4" font-family="Times-12" font-size="14.00"> &#160;Declarations</text>
<polygon fill="#8dd3c7" stroke="transparent" points="247,-10 247,-30 267,-30 267,-10 247,-10"/>
<text text-anchor="start" x="270.73" y="-15.4" font-family="Times-12" font-size="14.00"> &#160;Module</text>
<polygon fill="#80b1d3" stroke="transparent" points="333,-10 333,-30 353,-30 353,-10 333,-10"/>
<text text-anchor="start" x="356.78" y="-15.4" font-family="Times-12" font-size="14.00"> &#160;Bootstrap</text>
<polygon fill="#fdb462" stroke="transparent" points="430,-10 430,-30 450,-30 450,-10 430,-10"/>
<text text-anchor="start" x="453.67" y="-15.4" font-family="Times-12" font-size="14.00"> &#160;Providers</text>
<polygon fill="#fb8072" stroke="transparent" points="526,-10 526,-30 546,-30 546,-10 526,-10"/>
<text text-anchor="start" x="549.73" y="-15.4" font-family="Times-12" font-size="14.00"> &#160;Exports</text>
<g id="clust1" class="cluster">
<title>cluster_AppModule</title>
<polygon fill="none" stroke="black" stroke-dasharray="1,5" points="8,-70 8,-268 728,-268 728,-70 8,-70"/>
</g>
<g id="clust2" class="cluster">
<title>cluster_AppModule_declarations</title>
<polygon fill="none" stroke="black" points="148,-78 148,-130 720,-130 720,-78 148,-78"/>
</g>
<g id="clust7" class="cluster">
<title>cluster_AppModule_imports</title>
<polygon fill="none" stroke="black" points="16,-78 16,-130 140,-130 140,-78 16,-78"/>
</g>
<g id="clust9" class="cluster">
<title>cluster_AppModule_bootstrap</title>
<polygon fill="none" stroke="black" points="293,-208 293,-260 417,-260 417,-208 293,-208"/>
</g>
<!-- AppComponent -->
<g id="node1" class="node">
<title>AppComponent</title>
<polygon fill="#ffffb3" stroke="black" points="711.94,-122 606.06,-122 606.06,-86 711.94,-86 711.94,-122"/>
<text text-anchor="middle" x="659" y="-99.8" font-family="Times,serif" font-size="14.00">AppComponent</text>
</g>
<!-- AppModule -->
<g id="node5" class="node">
<title>AppModule</title>
<polygon fill="#8dd3c7" stroke="black" points="396.66,-187 393.66,-191 372.66,-191 369.66,-187 313.34,-187 313.34,-151 396.66,-151 396.66,-187"/>
<text text-anchor="middle" x="355" y="-164.8" font-family="Times,serif" font-size="14.00">AppModule</text>
</g>
<!-- AppComponent&#45;&gt;AppModule -->
<g id="edge1" class="edge">
<title>AppComponent&#45;&gt;AppModule</title>
<path fill="none" stroke="black" d="M659,-122.28C659,-143.32 659,-175 659,-175 659,-175 406.95,-175 406.95,-175"/>
<polygon fill="black" stroke="black" points="406.95,-171.5 396.95,-175 406.95,-178.5 406.95,-171.5"/>
</g>
<!-- CodeSnippetComponent -->
<g id="node2" class="node">
<title>CodeSnippetComponent</title>
<polygon fill="#ffffb3" stroke="black" points="587.66,-122 434.34,-122 434.34,-86 587.66,-86 587.66,-122"/>
<text text-anchor="middle" x="511" y="-99.8" font-family="Times,serif" font-size="14.00">CodeSnippetComponent</text>
</g>
<!-- CodeSnippetComponent&#45;&gt;AppModule -->
<g id="edge2" class="edge">
<title>CodeSnippetComponent&#45;&gt;AppModule</title>
<path fill="none" stroke="black" d="M511,-122.02C511,-139.37 511,-163 511,-163 511,-163 406.81,-163 406.81,-163"/>
<polygon fill="black" stroke="black" points="406.81,-159.5 396.81,-163 406.81,-166.5 406.81,-159.5"/>
</g>
<!-- HeaderComponent -->
<g id="node3" class="node">
<title>HeaderComponent</title>
<polygon fill="#ffffb3" stroke="black" points="415.74,-122 294.26,-122 294.26,-86 415.74,-86 415.74,-122"/>
<text text-anchor="middle" x="355" y="-99.8" font-family="Times,serif" font-size="14.00">HeaderComponent</text>
</g>
<!-- HeaderComponent&#45;&gt;AppModule -->
<g id="edge3" class="edge">
<title>HeaderComponent&#45;&gt;AppModule</title>
<path fill="none" stroke="black" d="M355,-122.11C355,-122.11 355,-140.99 355,-140.99"/>
<polygon fill="black" stroke="black" points="351.5,-140.99 355,-150.99 358.5,-140.99 351.5,-140.99"/>
</g>
<!-- LayoutComponent -->
<g id="node4" class="node">
<title>LayoutComponent</title>
<polygon fill="#ffffb3" stroke="black" points="276.49,-122 155.51,-122 155.51,-86 276.49,-86 276.49,-122"/>
<text text-anchor="middle" x="216" y="-99.8" font-family="Times,serif" font-size="14.00">LayoutComponent</text>
</g>
<!-- LayoutComponent&#45;&gt;AppModule -->
<g id="edge4" class="edge">
<title>LayoutComponent&#45;&gt;AppModule</title>
<path fill="none" stroke="black" d="M216,-122.02C216,-139.37 216,-163 216,-163 216,-163 303.3,-163 303.3,-163"/>
<polygon fill="black" stroke="black" points="303.3,-166.5 313.3,-163 303.3,-159.5 303.3,-166.5"/>
</g>
<!-- AppComponent  -->
<g id="node7" class="node">
<title>AppComponent </title>
<polygon fill="#80b1d3" stroke="black" points="409.44,-252 300.56,-252 300.56,-216 409.44,-216 409.44,-252"/>
<text text-anchor="middle" x="355" y="-229.8" font-family="Times,serif" font-size="14.00">AppComponent </text>
</g>
<!-- AppModule&#45;&gt;AppComponent  -->
<g id="edge6" class="edge">
<title>AppModule&#45;&gt;AppComponent </title>
<path fill="none" stroke="black" stroke-dasharray="1,5" d="M355,-187.11C355,-187.11 355,-205.99 355,-205.99"/>
<polygon fill="black" stroke="black" points="351.5,-205.99 355,-215.99 358.5,-205.99 351.5,-205.99"/>
</g>
<!-- SuperJssModule -->
<g id="node6" class="node">
<title>SuperJssModule</title>
<polygon fill="#8dd3c7" stroke="black" points="132.04,-122 129.04,-126 108.04,-126 105.04,-122 23.96,-122 23.96,-86 132.04,-86 132.04,-122"/>
<text text-anchor="middle" x="78" y="-99.8" font-family="Times,serif" font-size="14.00">SuperJssModule</text>
</g>
<!-- SuperJssModule&#45;&gt;AppModule -->
<g id="edge5" class="edge">
<title>SuperJssModule&#45;&gt;AppModule</title>
<path fill="none" stroke="black" d="M78,-122.28C78,-143.32 78,-175 78,-175 78,-175 303.23,-175 303.23,-175"/>
<polygon fill="black" stroke="black" points="303.23,-178.5 313.23,-175 303.23,-171.5 303.23,-178.5"/>
</g>
</g>
</svg>
