<?xml version="1.0" encoding="UTF-8" standalone="no"?>
<!DOCTYPE svg PUBLIC "-//W3C//DTD SVG 1.1//EN"
 "http://www.w3.org/Graphics/SVG/1.1/DTD/svg11.dtd">
<!-- Generated by graphviz version 2.47.0 (20210316.0004)
 -->
<!-- Title: dependencies Pages: 1 -->
<svg width="1046pt" height="290pt"
 viewBox="0.00 0.00 1046.00 290.00" xmlns="http://www.w3.org/2000/svg" xmlns:xlink="http://www.w3.org/1999/xlink">
<g id="graph0" class="graph" transform="scale(1 1) rotate(0) translate(4 286)">
<title>dependencies</title>
<polygon fill="white" stroke="transparent" points="-4,4 -4,-286 1042,-286 1042,4 -4,4"/>
<text text-anchor="start" x="498.01" y="-42.4" font-family="Times-12" font-weight="bold" font-size="14.00">Legend</text>
<polygon fill="#ffffb3" stroke="transparent" points="285,-10 285,-30 305,-30 305,-10 285,-10"/>
<text text-anchor="start" x="308.63" y="-15.4" font-family="Times-12" font-size="14.00"> &#160;Declarations</text>
<polygon fill="#8dd3c7" stroke="transparent" points="398,-10 398,-30 418,-30 418,-10 398,-10"/>
<text text-anchor="start" x="421.73" y="-15.4" font-family="Times-12" font-size="14.00"> &#160;Module</text>
<polygon fill="#80b1d3" stroke="transparent" points="484,-10 484,-30 504,-30 504,-10 484,-10"/>
<text text-anchor="start" x="507.78" y="-15.4" font-family="Times-12" font-size="14.00"> &#160;Bootstrap</text>
<polygon fill="#fdb462" stroke="transparent" points="581,-10 581,-30 601,-30 601,-10 581,-10"/>
<text text-anchor="start" x="604.67" y="-15.4" font-family="Times-12" font-size="14.00"> &#160;Providers</text>
<polygon fill="#fb8072" stroke="transparent" points="677,-10 677,-30 697,-30 697,-10 677,-10"/>
<text text-anchor="start" x="700.73" y="-15.4" font-family="Times-12" font-size="14.00"> &#160;Exports</text>
<g id="clust1" class="cluster">
<title>cluster_AppModule</title>
<polygon fill="none" stroke="black" stroke-dasharray="1,5" points="8,-70 8,-274 728,-274 728,-70 8,-70"/>
</g>
<g id="clust2" class="cluster">
<title>cluster_AppModule_declarations</title>
<polygon fill="none" stroke="black" points="16,-78 16,-130 588,-130 588,-78 16,-78"/>
</g>
<g id="clust7" class="cluster">
<title>cluster_AppModule_imports</title>
<polygon fill="none" stroke="black" points="596,-78 596,-130 720,-130 720,-78 596,-78"/>
</g>
<g id="clust9" class="cluster">
<title>cluster_AppModule_bootstrap</title>
<polygon fill="none" stroke="black" points="317,-214 317,-266 441,-266 441,-214 317,-214"/>
</g>
<g id="clust11" class="cluster">
<title>cluster_SuperJssModule</title>
<polygon fill="none" stroke="black" stroke-dasharray="1,5" points="736,-138 736,-206 1030,-206 1030,-138 736,-138"/>
</g>
<g id="clust12" class="cluster">
<title>cluster_SuperJssModule_declarations</title>
<polygon fill="none" stroke="black" points="888,-146 888,-198 1022,-198 1022,-146 888,-146"/>
</g>
<g id="clust15" class="cluster">
<title>cluster_SuperJssModule_exports</title>
<polygon fill="none" stroke="black" points="744,-146 744,-198 880,-198 880,-146 744,-146"/>
</g>
<!-- AppComponent -->
<g id="node1" class="node">
<title>AppComponent</title>
<polygon fill="#ffffb3" stroke="black" points="579.94,-122 474.06,-122 474.06,-86 579.94,-86 579.94,-122"/>
<text text-anchor="middle" x="527" y="-99.8" font-family="Times,serif" font-size="14.00">AppComponent</text>
</g>
<!-- AppModule -->
<g id="node5" class="node">
<title>AppModule</title>
<polygon fill="#8dd3c7" stroke="black" points="420.66,-190 417.66,-194 396.66,-194 393.66,-190 337.34,-190 337.34,-154 420.66,-154 420.66,-190"/>
<text text-anchor="middle" x="379" y="-167.8" font-family="Times,serif" font-size="14.00">AppModule</text>
</g>
<!-- AppComponent&#45;&gt;AppModule -->
<g id="edge1" class="edge">
<title>AppComponent&#45;&gt;AppModule</title>
<path fill="none" stroke="black" d="M527,-122.22C527,-142.37 527,-172 527,-172 527,-172 431.01,-172 431.01,-172"/>
<polygon fill="black" stroke="black" points="431.02,-168.5 421.01,-172 431.01,-175.5 431.02,-168.5"/>
</g>
<!-- CodeSnippetComponent -->
<g id="node2" class="node">
<title>CodeSnippetComponent</title>
<polygon fill="#ffffb3" stroke="black" points="455.66,-122 302.34,-122 302.34,-86 455.66,-86 455.66,-122"/>
<text text-anchor="middle" x="379" y="-99.8" font-family="Times,serif" font-size="14.00">CodeSnippetComponent</text>
</g>
<!-- CodeSnippetComponent&#45;&gt;AppModule -->
<g id="edge2" class="edge">
<title>CodeSnippetComponent&#45;&gt;AppModule</title>
<path fill="none" stroke="black" d="M379,-122.22C379,-122.22 379,-143.73 379,-143.73"/>
<polygon fill="black" stroke="black" points="375.5,-143.73 379,-153.73 382.5,-143.73 375.5,-143.73"/>
</g>
<!-- HeaderComponent -->
<g id="node3" class="node">
<title>HeaderComponent</title>
<polygon fill="#ffffb3" stroke="black" points="283.74,-122 162.26,-122 162.26,-86 283.74,-86 283.74,-122"/>
<text text-anchor="middle" x="223" y="-99.8" font-family="Times,serif" font-size="14.00">HeaderComponent</text>
</g>
<!-- HeaderComponent&#45;&gt;AppModule -->
<g id="edge3" class="edge">
<title>HeaderComponent&#45;&gt;AppModule</title>
<path fill="none" stroke="black" d="M223,-122.27C223,-140.56 223,-166 223,-166 223,-166 327.19,-166 327.19,-166"/>
<polygon fill="black" stroke="black" points="327.19,-169.5 337.19,-166 327.19,-162.5 327.19,-169.5"/>
</g>
<!-- LayoutComponent -->
<g id="node4" class="node">
<title>LayoutComponent</title>
<polygon fill="#ffffb3" stroke="black" points="144.49,-122 23.51,-122 23.51,-86 144.49,-86 144.49,-122"/>
<text text-anchor="middle" x="84" y="-99.8" font-family="Times,serif" font-size="14.00">LayoutComponent</text>
</g>
<!-- LayoutComponent&#45;&gt;AppModule -->
<g id="edge4" class="edge">
<title>LayoutComponent&#45;&gt;AppModule</title>
<path fill="none" stroke="black" d="M84,-122.29C84,-144.21 84,-178 84,-178 84,-178 327.05,-178 327.05,-178"/>
<polygon fill="black" stroke="black" points="327.05,-181.5 337.05,-178 327.05,-174.5 327.05,-181.5"/>
</g>
<!-- AppComponent  -->
<g id="node7" class="node">
<title>AppComponent </title>
<polygon fill="#80b1d3" stroke="black" points="433.44,-258 324.56,-258 324.56,-222 433.44,-222 433.44,-258"/>
<text text-anchor="middle" x="379" y="-235.8" font-family="Times,serif" font-size="14.00">AppComponent </text>
</g>
<!-- AppModule&#45;&gt;AppComponent  -->
<g id="edge6" class="edge">
<title>AppModule&#45;&gt;AppComponent </title>
<path fill="none" stroke="black" stroke-dasharray="1,5" d="M379,-190.22C379,-190.22 379,-211.73 379,-211.73"/>
<polygon fill="black" stroke="black" points="375.5,-211.73 379,-221.73 382.5,-211.73 375.5,-211.73"/>
</g>
<!-- SuperJssModule -->
<g id="node6" class="node">
<title>SuperJssModule</title>
<polygon fill="#8dd3c7" stroke="black" points="712.04,-122 709.04,-126 688.04,-126 685.04,-122 603.96,-122 603.96,-86 712.04,-86 712.04,-122"/>
<text text-anchor="middle" x="658" y="-99.8" font-family="Times,serif" font-size="14.00">SuperJssModule</text>
</g>
<!-- SuperJssModule&#45;&gt;AppModule -->
<g id="edge5" class="edge">
<title>SuperJssModule&#45;&gt;AppModule</title>
<path fill="none" stroke="black" d="M639.91,-122.25C639.91,-145.02 639.91,-181 639.91,-181 639.91,-181 430.92,-181 430.92,-181"/>
<polygon fill="black" stroke="black" points="430.92,-177.5 420.92,-181 430.92,-184.5 430.92,-177.5"/>
</g>
<!-- SuperJssDirective  -->
<g id="node9" class="node">
<title>SuperJssDirective </title>
<polygon fill="#fb8072" stroke="black" points="872.08,-190 751.92,-190 751.92,-154 872.08,-154 872.08,-190"/>
<text text-anchor="middle" x="812" y="-167.8" font-family="Times,serif" font-size="14.00">SuperJssDirective </text>
</g>
<!-- SuperJssModule&#45;&gt;SuperJssDirective  -->
<g id="edge8" class="edge">
<title>SuperJssModule&#45;&gt;SuperJssDirective </title>
<path fill="none" stroke="black" stroke-dasharray="5,2" d="M676.09,-122.02C676.09,-139.37 676.09,-163 676.09,-163 676.09,-163 741.6,-163 741.6,-163"/>
<polygon fill="black" stroke="black" points="741.6,-166.5 751.6,-163 741.6,-159.5 741.6,-166.5"/>
</g>
<!-- SuperJssDirective -->
<g id="node8" class="node">
<title>SuperJssDirective</title>
<polygon fill="#ffffb3" stroke="black" points="1013.57,-190 896.43,-190 896.43,-154 1013.57,-154 1013.57,-190"/>
<text text-anchor="middle" x="955" y="-167.8" font-family="Times,serif" font-size="14.00">SuperJssDirective</text>
</g>
<!-- SuperJssDirective&#45;&gt;SuperJssModule -->
<g id="edge7" class="edge">
<title>SuperJssDirective&#45;&gt;SuperJssModule</title>
<path fill="none" stroke="black" d="M955,-153.78C955,-133.63 955,-104 955,-104 955,-104 722.13,-104 722.13,-104"/>
<polygon fill="black" stroke="black" points="722.13,-100.5 712.13,-104 722.13,-107.5 722.13,-100.5"/>
</g>
</g>
</svg>
